<?xml version="1.0" encoding="UTF-8"?>
<svg id="Layer_2" data-name="Layer 2" xmlns="http://www.w3.org/2000/svg" viewBox="0 0 211.28 211.28">
  <defs>
    <style>
      .cls-1 {
        fill: #74c9b5;
      }
    </style>
  </defs>
  <g id="Layer_1-2" data-name="Layer 1">
    <g>
      <path class="cls-1" d="M105.64,211.28C47.39,211.28,0,163.89,0,105.64S47.39,0,105.64,0s105.64,47.39,105.64,105.64-47.39,105.64-105.64,105.64ZM105.64,8C51.8,8,8,51.8,8,105.64s43.8,97.64,97.64,97.64,97.64-43.8,97.64-97.64S159.48,8,105.64,8Z"/>
      <path class="cls-1" d="M105.64,198.07c-50.97,0-92.43-41.46-92.43-92.43S54.67,13.21,105.64,13.21s92.43,41.46,92.43,92.43-41.46,92.43-92.43,92.43ZM105.64,21.21c-46.55,0-84.43,37.88-84.43,84.43s37.88,84.43,84.43,84.43,84.43-37.88,84.43-84.43S152.19,21.21,105.64,21.21Z"/>
      <path class="cls-1" d="M105.64,185.34c-43.94,0-79.7-35.75-79.7-79.7S61.69,25.94,105.64,25.94s79.7,35.75,79.7,79.7-35.75,79.7-79.7,79.7ZM105.64,33.94c-39.53,0-71.7,32.16-71.7,71.7s32.16,71.7,71.7,71.7,71.7-32.16,71.7-71.7-32.16-71.7-71.7-71.7Z"/>
      <path class="cls-1" d="M105.64,172.52c-36.88,0-66.88-30-66.88-66.88s30-66.88,66.88-66.88,66.88,30,66.88,66.88-30,66.88-66.88,66.88ZM105.64,46.76c-32.47,0-58.88,26.42-58.88,58.88s26.42,58.88,58.88,58.88,58.88-26.42,58.88-58.88-26.42-58.88-58.88-58.88Z"/>
      <path class="cls-1" d="M105.64,159.66c-29.79,0-54.02-24.23-54.02-54.02s24.23-54.02,54.02-54.02,54.02,24.23,54.02,54.02-24.23,54.02-54.02,54.02ZM105.64,59.62c-25.38,0-46.02,20.64-46.02,46.02s20.64,46.02,46.02,46.02,46.02-20.64,46.02-46.02-20.64-46.02-46.02-46.02Z"/>
    </g>
  </g>
</svg>