<?xml version="1.0" encoding="UTF-8"?>
<svg id="Layer_2" data-name="Layer 2" xmlns="http://www.w3.org/2000/svg" viewBox="0 0 309.13 537.49">
  <defs>
    <style>
      .cls-1 {
        fill: #74c9b5;
      }
    </style>
  </defs>
  <g id="Layer_1-2" data-name="Layer 1">
    <g>
      <g>
        <path class="cls-1" d="M71.3,303.22c-2.8-.91-5.55-1.93-8.25-3.06,1.79,32.47,18.31,61.07,42.98,79.23,1.27-2.36,2.63-4.67,4.07-6.93-21.55-16.14-36.23-40.97-38.8-69.25Z"/>
        <path class="cls-1" d="M274.16,294.27c0,16.08-3.62,31.33-10.07,44.98-2.24-1.46-4.53-2.85-6.88-4.16,5.74-12.43,8.95-26.25,8.95-40.82,0-35.12-18.65-65.97-46.55-83.17,3.18-1.01,6.29-2.15,9.33-3.43,27.32,19.11,45.22,50.81,45.22,86.6Z"/>
        <path class="cls-1" d="M215.08,214.45c-.42,2.84-.95,5.65-1.59,8.41,23.69,14.97,39.46,41.37,39.46,71.41,0,12.52-2.76,24.4-7.67,35.09,2.48,1.01,4.92,2.11,7.31,3.3,5.36-11.7,8.36-24.7,8.36-38.39,0-34-18.46-63.77-45.87-79.82Z"/>
        <path class="cls-1" d="M85.02,306.73c-2.81-.53-5.59-1.17-8.32-1.91,2.95,25.81,16.56,48.42,36.31,63.3,1.54-2.18,3.15-4.3,4.84-6.37-17.34-13.05-29.51-32.62-32.83-55.03Z"/>
        <path class="cls-1" d="M98.23,308.4c-2.79-.18-5.55-.47-8.28-.86,3.47,20.63,14.88,38.59,30.98,50.62,1.8-2.01,3.66-3.95,5.6-5.83-14.34-10.4-24.7-25.95-28.3-43.93Z"/>
        <path class="cls-1" d="M212.26,227.7c-.75,2.69-1.6,5.35-2.54,7.95,18.43,12.99,30.5,34.42,30.5,58.62,0,11.08-2.53,21.58-7.03,30.95,2.6.72,5.16,1.54,7.67,2.44,4.71-10.16,7.36-21.47,7.36-33.39,0-27.8-14.32-52.31-35.96-66.57Z"/>
        <path class="cls-1" d="M207.93,240.28c-1.05,2.53-2.18,5.01-3.41,7.44,13.91,10.78,22.89,27.63,22.89,46.55,0,10.2-2.61,19.8-7.19,28.17,2.77.42,5.5.94,8.19,1.56,4.47-8.96,7-19.06,7-29.73,0-22.16-10.84-41.82-27.48-54Z"/>
        <path class="cls-1" d="M111.39,308.51c-1.9.1-3.82.15-5.75.15-.81,0-1.62-.01-2.43-.03,3.64,16.6,13.47,30.9,26.93,40.37,2.08-1.84,4.23-3.61,6.45-5.29-12.36-8.01-21.54-20.52-25.2-35.2Z"/>
        <path class="cls-1" d="M202.2,252.08c-1.32,2.35-2.72,4.64-4.2,6.88,10.11,8.45,16.55,21.14,16.55,35.31,0,10.06-3.25,19.37-8.75,26.95,3.1.06,6.16.25,9.19.56,4.79-8.06,7.55-17.47,7.55-27.51,0-17.06-7.96-32.29-20.35-42.2Z"/>
        <path class="cls-1" d="M124.33,307.08c-2.64.45-5.31.81-8.01,1.06,3.65,13.74,12.6,25.35,24.52,32.49,2.51-1.73,5.1-3.36,7.76-4.88-11.66-5.63-20.6-16.04-24.26-28.67Z"/>
      </g>
      <g>
        <path class="cls-1" d="M105.64,295.64c-53.84,0-97.64-43.8-97.64-97.64,0-43.21,28.22-79.95,67.2-92.77.01-2.86.13-5.69.35-8.49C31.91,109.72,0,150.2,0,198c0,58.25,47.39,105.64,105.64,105.64,52.94,0,96.91-39.15,104.48-90.01-2.75.61-5.53,1.13-8.35,1.53-8.13,45.68-48.14,80.48-96.13,80.48Z"/>
        <path class="cls-1" d="M13.21,198c0,50.97,41.46,92.43,92.43,92.43,44.88,0,82.38-32.15,90.7-74.62-2.73.26-5.5.42-8.29.47-8.38,37.79-42.14,66.15-82.41,66.15-46.55,0-84.43-37.88-84.43-84.43,0-36.13,22.81-67.01,54.78-79.04-.33-2.73-.56-5.49-.68-8.27-36.11,12.58-62.1,46.97-62.1,87.31Z"/>
        <path class="cls-1" d="M25.94,198c0,43.94,35.75,79.7,79.7,79.7,37.66,0,69.27-26.26,77.56-61.43-2.72-.06-5.42-.23-8.1-.49-7.93,30.96-36.06,53.91-69.46,53.91-39.53,0-71.7-32.16-71.7-71.7,0-29.85,18.35-55.49,44.35-66.26-.63-2.62-1.17-5.27-1.62-7.96-29.66,11.61-50.74,40.5-50.74,74.23Z"/>
        <path class="cls-1" d="M38.76,198c0,36.88,30,66.88,66.88,66.88,30.93,0,57.02-21.11,64.63-49.68-2.67-.38-5.31-.85-7.91-1.41-6.92,24.82-29.72,43.09-56.72,43.09-32.47,0-58.88-26.42-58.88-58.88,0-24.08,14.54-44.82,35.29-53.94-.93-2.51-1.77-5.05-2.51-7.64-23.95,10.19-40.78,33.95-40.78,61.58Z"/>
        <path class="cls-1" d="M51.62,198c0,29.79,24.23,54.02,54.02,54.02,24.7,0,45.57-16.68,51.98-39.36-2.59-.68-5.14-1.45-7.66-2.31-5.41,19.4-23.23,33.67-44.32,33.67-25.38,0-46.02-20.64-46.02-46.02,0-18.82,11.37-35.04,27.59-42.16-1.21-2.37-2.33-4.79-3.37-7.25-18.96,8.4-32.22,27.38-32.22,49.41Z"/>
      </g>
      <g>
        <path class="cls-1" d="M185.85,211.28c-58.25,0-105.64-47.39-105.64-105.64S127.6,0,185.85,0s105.64,47.39,105.64,105.64-47.39,105.64-105.64,105.64ZM185.85,8c-53.84,0-97.64,43.8-97.64,97.64s43.8,97.64,97.64,97.64,97.64-43.8,97.64-97.64S239.69,8,185.85,8Z"/>
        <path class="cls-1" d="M185.85,198.07c-50.97,0-92.43-41.46-92.43-92.43S134.89,13.21,185.85,13.21s92.43,41.46,92.43,92.43-41.46,92.43-92.43,92.43ZM185.85,21.21c-46.55,0-84.43,37.88-84.43,84.43s37.88,84.43,84.43,84.43,84.43-37.88,84.43-84.43S232.41,21.21,185.85,21.21Z"/>
        <path class="cls-1" d="M185.85,185.34c-43.94,0-79.7-35.75-79.7-79.7S141.91,25.94,185.85,25.94s79.7,35.75,79.7,79.7-35.75,79.7-79.7,79.7ZM185.85,33.94c-39.53,0-71.7,32.16-71.7,71.7s32.16,71.7,71.7,71.7,71.7-32.16,71.7-71.7-32.16-71.7-71.7-71.7Z"/>
        <path class="cls-1" d="M185.85,172.52c-36.88,0-66.88-30-66.88-66.88s30-66.88,66.88-66.88,66.88,30,66.88,66.88-30,66.88-66.88,66.88ZM185.85,46.76c-32.47,0-58.88,26.42-58.88,58.88s26.42,58.88,58.88,58.88,58.88-26.42,58.88-58.88-26.42-58.88-58.88-58.88Z"/>
        <path class="cls-1" d="M185.85,159.66c-29.79,0-54.02-24.23-54.02-54.02s24.23-54.02,54.02-54.02,54.02,24.23,54.02,54.02-24.23,54.02-54.02,54.02ZM185.85,59.62c-25.38,0-46.02,20.64-46.02,46.02s20.64,46.02,46.02,46.02,46.02-20.64,46.02-46.02-20.64-46.02-46.02-46.02Z"/>
      </g>
      <g>
        <path class="cls-1" d="M203.49,537.49c-58.25,0-105.64-47.39-105.64-105.64s47.39-105.64,105.64-105.64,105.64,47.39,105.64,105.64-47.39,105.64-105.64,105.64ZM203.49,334.21c-53.84,0-97.64,43.8-97.64,97.64s43.8,97.64,97.64,97.64,97.64-43.8,97.64-97.64-43.8-97.64-97.64-97.64Z"/>
        <path class="cls-1" d="M203.49,524.28c-50.97,0-92.43-41.46-92.43-92.43s41.46-92.43,92.43-92.43,92.43,41.46,92.43,92.43-41.46,92.43-92.43,92.43ZM203.49,347.42c-46.55,0-84.43,37.88-84.43,84.43s37.88,84.43,84.43,84.43,84.43-37.88,84.43-84.43-37.88-84.43-84.43-84.43Z"/>
        <path class="cls-1" d="M203.49,511.55c-43.94,0-79.7-35.75-79.7-79.7s35.75-79.7,79.7-79.7,79.7,35.75,79.7,79.7-35.75,79.7-79.7,79.7ZM203.49,360.16c-39.53,0-71.7,32.16-71.7,71.7s32.16,71.7,71.7,71.7,71.7-32.16,71.7-71.7-32.16-71.7-71.7-71.7Z"/>
        <path class="cls-1" d="M203.49,498.74c-36.88,0-66.88-30-66.88-66.88s30-66.88,66.88-66.88,66.88,30,66.88,66.88-30,66.88-66.88,66.88ZM203.49,372.97c-32.47,0-58.88,26.42-58.88,58.88s26.42,58.88,58.88,58.88,58.88-26.42,58.88-58.88-26.42-58.88-58.88-58.88Z"/>
        <path class="cls-1" d="M203.49,485.87c-29.79,0-54.02-24.23-54.02-54.02s24.23-54.02,54.02-54.02,54.02,24.23,54.02,54.02-24.23,54.02-54.02,54.02ZM203.49,385.83c-25.38,0-46.02,20.64-46.02,46.02s20.64,46.02,46.02,46.02,46.02-20.64,46.02-46.02-20.64-46.02-46.02-46.02Z"/>
      </g>
    </g>
  </g>
</svg>