<?xml version="1.0" encoding="UTF-8"?>
<svg id="Layer_2" data-name="Layer 2" xmlns="http://www.w3.org/2000/svg" viewBox="0 0 237.27 446.51">
  <defs>
    <style>
      .cls-1 {
        fill: #74c9b5;
      }
    </style>
  </defs>
  <g id="Layer_1-2" data-name="Layer 1">
    <g>
      <g>
        <path class="cls-1" d="M201.49,160.97c-1.53,2.66-3.17,5.24-4.92,7.74,6.7,13.22,10.47,28.16,10.47,43.96,0,14.24-3.07,27.78-8.57,40,2.19,1.66,4.32,3.4,6.38,5.23,6.53-13.71,10.19-29.05,10.19-45.23,0-18.77-4.92-36.41-13.55-51.7ZM11.76,212.67c0-13.38,2.7-26.13,7.59-37.75-1.92-2.38-3.74-4.84-5.45-7.38-6.5,13.69-10.14,28.99-10.14,45.13,0,29.14,11.86,55.55,31,74.68,1.33-2.41,2.75-4.77,4.27-7.07-16.88-17.56-27.27-41.39-27.27-67.61Z"/>
        <path class="cls-1" d="M24.97,212.67c0-9.39,1.54-18.42,4.38-26.86-2.15-2.05-4.22-4.19-6.19-6.4-4,10.32-6.19,21.54-6.19,33.26,0,24.43,9.54,46.69,25.08,63.23,1.58-2.19,3.25-4.31,4.99-6.37-13.7-15.02-22.07-34.99-22.07-56.86ZM193.09,173.46c-1.82,2.35-3.73,4.61-5.74,6.8,4.18,9.98,6.48,20.93,6.48,32.41s-2.32,22.52-6.53,32.54c2.34,1.36,4.62,2.81,6.84,4.34,4.95-11.3,7.69-23.78,7.69-36.88,0-14.01-3.13-27.3-8.74-39.21Z"/>
        <path class="cls-1" d="M183.76,184.01c-2.04,2.05-4.17,4.01-6.37,5.87,2.4,7.16,3.71,14.83,3.71,22.79,0,9.46-1.84,18.5-5.19,26.77,2.46,1.06,4.86,2.22,7.22,3.47,3.85-9.33,5.97-19.54,5.97-30.24,0-10.1-1.89-19.76-5.34-28.66ZM37.7,212.67c0-6.2.79-12.21,2.27-17.95-2.33-1.72-4.59-3.53-6.77-5.42-2.28,7.39-3.5,15.24-3.5,23.37,0,20.47,7.76,39.16,20.49,53.28,1.81-1.97,3.69-3.87,5.64-5.69-11.28-12.66-18.13-29.34-18.13-47.59Z"/>
        <path class="cls-1" d="M50.52,212.67c0-3.59.32-7.1.94-10.52-2.48-1.39-4.9-2.88-7.25-4.46-1.11,4.82-1.69,9.83-1.69,14.98,0,17.01,6.38,32.55,16.88,44.36,2.02-1.74,4.1-3.41,6.24-5-9.4-10.44-15.12-24.24-15.12-39.36ZM173.38,193.14c-2.24,1.75-4.55,3.4-6.92,4.95,1.2,4.67,1.83,9.55,1.83,14.58,0,7.9-1.56,15.43-4.4,22.32h0c2.57.78,5.09,1.65,7.57,2.62,3.12-7.71,4.83-16.13,4.83-24.94,0-6.79-1.02-13.35-2.91-19.53Z"/>
        <path class="cls-1" d="M162.1,200.82c-2.39,1.44-4.84,2.77-7.35,4.01.44,2.55.67,5.17.67,7.84,0,6.88-1.51,13.4-4.23,19.26,2.7.48,5.36,1.06,7.99,1.73,2.73-6.46,4.24-13.55,4.24-20.99,0-4.07-.45-8.04-1.32-11.85ZM63.61,208.04c-2.59-1.06-5.13-2.22-7.62-3.48-.4,2.64-.61,5.35-.61,8.11,0,14.07,5.41,26.9,14.26,36.52,2.25-1.52,4.56-2.96,6.92-4.33-8.15-8.3-13.18-19.67-13.18-32.19,0-1.56.08-3.11.23-4.63Z"/>
      </g>
      <g>
        <path class="cls-1" d="M105.64,211.28C47.39,211.28,0,163.89,0,105.64S47.39,0,105.64,0s105.64,47.39,105.64,105.64-47.39,105.64-105.64,105.64ZM105.64,8C51.8,8,8,51.8,8,105.64s43.8,97.64,97.64,97.64,97.64-43.8,97.64-97.64S159.48,8,105.64,8Z"/>
        <path class="cls-1" d="M105.64,198.07c-50.97,0-92.43-41.46-92.43-92.43S54.67,13.21,105.64,13.21s92.43,41.46,92.43,92.43-41.46,92.43-92.43,92.43ZM105.64,21.21c-46.55,0-84.43,37.88-84.43,84.43s37.88,84.43,84.43,84.43,84.43-37.88,84.43-84.43S152.19,21.21,105.64,21.21Z"/>
        <path class="cls-1" d="M105.64,185.34c-43.94,0-79.7-35.75-79.7-79.7S61.69,25.94,105.64,25.94s79.7,35.75,79.7,79.7-35.75,79.7-79.7,79.7ZM105.64,33.94c-39.53,0-71.7,32.16-71.7,71.7s32.16,71.7,71.7,71.7,71.7-32.16,71.7-71.7-32.16-71.7-71.7-71.7Z"/>
        <path class="cls-1" d="M105.64,172.52c-36.88,0-66.88-30-66.88-66.88s30-66.88,66.88-66.88,66.88,30,66.88,66.88-30,66.88-66.88,66.88ZM105.64,46.76c-32.47,0-58.88,26.42-58.88,58.88s26.42,58.88,58.88,58.88,58.88-26.42,58.88-58.88-26.42-58.88-58.88-58.88Z"/>
        <path class="cls-1" d="M105.64,159.66c-29.79,0-54.02-24.23-54.02-54.02s24.23-54.02,54.02-54.02,54.02,24.23,54.02,54.02-24.23,54.02-54.02,54.02ZM105.64,59.62c-25.38,0-46.02,20.64-46.02,46.02s20.64,46.02,46.02,46.02,46.02-20.64,46.02-46.02-20.64-46.02-46.02-46.02Z"/>
      </g>
      <g>
        <path class="cls-1" d="M131.64,446.51c-58.25,0-105.64-47.39-105.64-105.64s47.39-105.64,105.64-105.64,105.64,47.39,105.64,105.64-47.39,105.64-105.64,105.64ZM131.64,243.23c-53.84,0-97.64,43.8-97.64,97.64s43.8,97.64,97.64,97.64,97.64-43.8,97.64-97.64-43.8-97.64-97.64-97.64Z"/>
        <path class="cls-1" d="M131.64,433.3c-50.97,0-92.43-41.46-92.43-92.43s41.46-92.43,92.43-92.43,92.43,41.46,92.43,92.43-41.46,92.43-92.43,92.43ZM131.64,256.44c-46.55,0-84.43,37.88-84.43,84.43s37.88,84.43,84.43,84.43,84.43-37.88,84.43-84.43-37.88-84.43-84.43-84.43Z"/>
        <path class="cls-1" d="M131.64,420.57c-43.94,0-79.7-35.75-79.7-79.7s35.75-79.7,79.7-79.7,79.7,35.75,79.7,79.7-35.75,79.7-79.7,79.7ZM131.64,269.18c-39.53,0-71.7,32.16-71.7,71.7s32.16,71.7,71.7,71.7,71.7-32.16,71.7-71.7-32.16-71.7-71.7-71.7Z"/>
        <path class="cls-1" d="M131.64,407.76c-36.88,0-66.88-30-66.88-66.88s30-66.88,66.88-66.88,66.88,30,66.88,66.88-30,66.88-66.88,66.88ZM131.64,281.99c-32.47,0-58.88,26.42-58.88,58.88s26.42,58.88,58.88,58.88,58.88-26.42,58.88-58.88-26.42-58.88-58.88-58.88Z"/>
        <path class="cls-1" d="M131.64,394.89c-29.79,0-54.02-24.23-54.02-54.02s24.23-54.02,54.02-54.02,54.02,24.23,54.02,54.02-24.23,54.02-54.02,54.02ZM131.64,294.85c-25.38,0-46.02,20.65-46.02,46.02s20.64,46.02,46.02,46.02,46.02-20.64,46.02-46.02-20.64-46.02-46.02-46.02Z"/>
      </g>
    </g>
  </g>
</svg>