<?xml version="1.0" encoding="UTF-8"?>
<svg id="Layer_2" data-name="Layer 2" xmlns="http://www.w3.org/2000/svg" viewBox="0 0 285.82 597.54">
  <defs>
    <style>
      .cls-1 {
        fill: #74c9b5;
      }
    </style>
  </defs>
  <g id="Layer_1-2" data-name="Layer 1">
    <g>
      <g>
        <path class="cls-1" d="M226.17,410.66c-1.48,2.23-3.04,4.41-4.67,6.52,21.3,17.92,34.86,44.77,34.86,74.72,0,53.84-43.8,97.64-97.64,97.64s-97.64-43.8-97.64-97.64c0-17.86,4.82-34.61,13.23-49.03-2.25-1.44-4.45-2.96-6.59-4.56-9.29,15.72-14.64,34.04-14.64,53.59,0,58.25,47.39,105.64,105.64,105.64s105.64-47.39,105.64-105.64c0-32.63-14.87-61.85-38.19-81.24Z"/>
        <path class="cls-1" d="M158.72,584.33c50.97,0,92.43-41.46,92.43-92.43,0-28.32-12.81-53.71-32.93-70.67-1.73,2.04-3.53,4.01-5.4,5.91,18.53,15.5,30.34,38.77,30.34,64.76,0,46.55-37.88,84.43-84.43,84.43s-84.43-37.88-84.43-84.43c0-15.52,4.23-30.07,11.57-42.58-2.42-1.16-4.78-2.41-7.1-3.75-7.93,13.63-12.47,29.45-12.47,46.32,0,50.97,41.46,92.43,92.43,92.43Z"/>
        <path class="cls-1" d="M158.72,571.59c43.94,0,79.7-35.75,79.7-79.7,0-24.7-11.3-46.82-29-61.45-1.98,1.85-4.03,3.63-6.14,5.34,16.52,13.15,27.15,33.41,27.15,56.11,0,39.53-32.16,71.7-71.7,71.7s-71.7-32.16-71.7-71.7c0-13.81,3.94-26.72,10.73-37.68-2.57-.89-5.09-1.86-7.57-2.93-7.08,11.9-11.16,25.79-11.16,40.61,0,43.94,35.75,79.7,79.7,79.7Z"/>
        <path class="cls-1" d="M158.72,558.78c36.88,0,66.88-30,66.88-66.88,0-21.61-10.31-40.85-26.26-53.09-2.28,1.67-4.62,3.26-7.03,4.76,15.27,10.65,25.3,28.33,25.3,48.32,0,32.47-26.42,58.88-58.88,58.88s-58.88-26.42-58.88-58.88c0-12.69,4.05-24.45,10.91-34.07-2.79-.59-5.54-1.29-8.24-2.09-6.74,10.44-10.66,22.85-10.66,36.16,0,36.88,30,66.88,66.88,66.88Z"/>
        <path class="cls-1" d="M158.72,545.92c29.79,0,54.02-24.23,54.02-54.02,0-19.15-10.02-35.98-25.08-45.58-2.79,1.56-5.66,3-8.6,4.31,15.2,7.52,25.68,23.19,25.68,41.27,0,25.38-20.64,46.02-46.02,46.02s-46.02-20.64-46.02-46.02c0-12.4,4.94-23.67,12.95-31.95-3.24-.24-6.43-.62-9.59-1.13-7.11,9.15-11.36,20.62-11.36,33.08,0,29.79,24.23,54.02,54.02,54.02Z"/>
        <path class="cls-1" d="M203.28,220.84c0,13.14-2.61,25.67-7.34,37.13,2.27,1.54,4.48,3.17,6.63,4.87,5.6-12.88,8.71-27.08,8.71-41.99,0-2.99-.13-5.94-.38-8.87-2.59.75-5.21,1.4-7.87,1.96.16,2.28.25,4.58.25,6.91Z"/>
        <path class="cls-1" d="M8,220.84c0-42.04,26.7-77.95,64.03-91.68-.57-2.63-1.04-5.29-1.42-7.98C29.53,135.66,0,174.86,0,220.84c0,31.2,13.6,59.29,35.19,78.64,1.25-2.45,2.58-4.84,3.99-7.18-19.17-17.84-31.18-43.27-31.18-71.46Z"/>
        <path class="cls-1" d="M21.21,220.84c0-35.98,22.64-66.76,54.41-78.9-.87-2.52-1.66-5.08-2.35-7.68-35.05,13.15-60.06,46.99-60.06,86.57,0,26.34,11.08,50.15,28.82,67,1.51-2.24,3.1-4.42,4.76-6.54-15.77-15.35-25.58-36.77-25.58-60.46Z"/>
        <path class="cls-1" d="M197.87,214.89c-2.62.42-5.28.75-7.96.98.1,1.65.16,3.3.16,4.97,0,10.67-2.01,20.88-5.64,30.29,2.41,1.24,4.76,2.56,7.06,3.97,4.24-10.6,6.58-22.16,6.58-34.26,0-2-.07-3.98-.2-5.95Z"/>
        <path class="cls-1" d="M33.94,220.84c0-30.68,19.38-56.92,46.54-67.13-1.16-2.4-2.23-4.84-3.22-7.33-29.97,11.46-51.32,40.51-51.32,74.46,0,22.22,9.15,42.33,23.86,56.8,1.73-2.03,3.54-3.99,5.42-5.88-13.13-13-21.28-31.02-21.28-50.92Z"/>
        <path class="cls-1" d="M185.19,216.18c-1.66.07-3.33.12-5.01.12-1.01,0-2.01-.02-3.01-.04.1,1.52.16,3.04.16,4.58,0,8.84-1.62,17.31-4.56,25.13,2.5.94,4.97,1.97,7.38,3.08,3.33-8.78,5.18-18.28,5.18-28.21,0-1.56-.06-3.12-.15-4.66Z"/>
        <path class="cls-1" d="M46.76,220.84c0-25.89,16.8-47.91,40.06-55.78-1.46-2.29-2.84-4.64-4.13-7.04-25.6,9.39-43.92,34.01-43.92,62.82,0,18.6,7.63,35.44,19.93,47.57,1.96-1.82,3.99-3.57,6.08-5.24-11.09-10.71-18.01-25.72-18.01-42.33Z"/>
        <path class="cls-1" d="M172.33,216.02c-2.72-.19-5.42-.48-8.09-.87.18,1.87.28,3.77.28,5.69,0,7.52-1.43,14.71-4.01,21.33,2.61.65,5.19,1.38,7.73,2.21,2.76-7.33,4.29-15.26,4.29-23.54,0-1.62-.08-3.23-.19-4.82Z"/>
        <path class="cls-1" d="M159.25,214.31c-2.84-.54-5.63-1.19-8.39-1.95.51,2.75.8,5.58.8,8.47,0,6.75-1.47,13.16-4.09,18.94,2.75.34,5.46.78,8.14,1.32,2.54-6.26,3.95-13.09,3.95-20.25,0-2.21-.15-4.38-.41-6.52Z"/>
        <path class="cls-1" d="M59.62,220.84c0-21.66,15.05-39.86,35.24-44.73-1.83-2.22-3.58-4.51-5.23-6.86-21.99,6.84-38,27.38-38,51.6,0,15.5,6.57,29.48,17.06,39.34,2.21-1.62,4.49-3.15,6.82-4.61-9.72-8.44-15.88-20.88-15.88-34.73Z"/>
      </g>
      <g>
        <path class="cls-1" d="M133.87,455.23c-58.25,0-105.64-47.39-105.64-105.64s47.39-105.64,105.64-105.64,105.64,47.39,105.64,105.64-47.39,105.64-105.64,105.64ZM133.87,251.95c-53.84,0-97.64,43.8-97.64,97.64s43.8,97.64,97.64,97.64,97.64-43.8,97.64-97.64-43.8-97.64-97.64-97.64Z"/>
        <path class="cls-1" d="M133.87,442.02c-50.97,0-92.43-41.46-92.43-92.43s41.46-92.43,92.43-92.43,92.43,41.46,92.43,92.43-41.46,92.43-92.43,92.43ZM133.87,265.16c-46.55,0-84.43,37.88-84.43,84.43s37.88,84.43,84.43,84.43,84.43-37.88,84.43-84.43-37.88-84.43-84.43-84.43Z"/>
        <path class="cls-1" d="M133.87,429.29c-43.94,0-79.7-35.75-79.7-79.7s35.75-79.7,79.7-79.7,79.7,35.75,79.7,79.7-35.75,79.7-79.7,79.7ZM133.87,277.9c-39.53,0-71.7,32.16-71.7,71.7s32.16,71.7,71.7,71.7,71.7-32.16,71.7-71.7-32.16-71.7-71.7-71.7Z"/>
        <path class="cls-1" d="M133.87,416.48c-36.88,0-66.88-30-66.88-66.88s30-66.88,66.88-66.88,66.88,30,66.88,66.88-30,66.88-66.88,66.88ZM133.87,290.71c-32.47,0-58.88,26.42-58.88,58.88s26.42,58.88,58.88,58.88,58.88-26.42,58.88-58.88-26.42-58.88-58.88-58.88Z"/>
        <path class="cls-1" d="M133.87,403.61c-29.79,0-54.02-24.23-54.02-54.02s24.23-54.02,54.02-54.02,54.02,24.23,54.02,54.02-24.23,54.02-54.02,54.02ZM133.87,303.57c-25.38,0-46.02,20.65-46.02,46.02s20.64,46.02,46.02,46.02,46.02-20.64,46.02-46.02-20.64-46.02-46.02-46.02Z"/>
      </g>
      <g>
        <path class="cls-1" d="M180.18,211.28c-58.25,0-105.64-47.39-105.64-105.64S121.93,0,180.18,0s105.64,47.39,105.64,105.64-47.39,105.64-105.64,105.64ZM180.18,8c-53.84,0-97.64,43.8-97.64,97.64s43.8,97.64,97.64,97.64,97.64-43.8,97.64-97.64S234.02,8,180.18,8Z"/>
        <path class="cls-1" d="M180.18,198.07c-50.97,0-92.43-41.46-92.43-92.43S129.21,13.21,180.18,13.21s92.43,41.46,92.43,92.43-41.46,92.43-92.43,92.43ZM180.18,21.21c-46.55,0-84.43,37.88-84.43,84.43s37.88,84.43,84.43,84.43,84.43-37.88,84.43-84.43S226.73,21.21,180.18,21.21Z"/>
        <path class="cls-1" d="M180.18,185.34c-43.94,0-79.7-35.75-79.7-79.7S136.24,25.94,180.18,25.94s79.7,35.75,79.7,79.7-35.75,79.7-79.7,79.7ZM180.18,33.94c-39.53,0-71.7,32.16-71.7,71.7s32.16,71.7,71.7,71.7,71.7-32.16,71.7-71.7-32.16-71.7-71.7-71.7Z"/>
        <path class="cls-1" d="M180.18,172.52c-36.88,0-66.88-30-66.88-66.88s30-66.88,66.88-66.88,66.88,30,66.88,66.88-30,66.88-66.88,66.88ZM180.18,46.76c-32.47,0-58.88,26.42-58.88,58.88s26.42,58.88,58.88,58.88,58.88-26.42,58.88-58.88-26.42-58.88-58.88-58.88Z"/>
        <path class="cls-1" d="M180.18,159.66c-29.79,0-54.02-24.23-54.02-54.02s24.23-54.02,54.02-54.02,54.02,24.23,54.02,54.02-24.23,54.02-54.02,54.02ZM180.18,59.62c-25.38,0-46.02,20.64-46.02,46.02s20.64,46.02,46.02,46.02,46.02-20.64,46.02-46.02-20.64-46.02-46.02-46.02Z"/>
      </g>
    </g>
  </g>
</svg>