<?xml version="1.0" encoding="UTF-8"?>
<svg id="Layer_2" data-name="Layer 2" xmlns="http://www.w3.org/2000/svg" viewBox="0 0 251.94 326.48">
  <defs>
    <style>
      .cls-1 {
        fill: #74c9b5;
      }
    </style>
  </defs>
  <g id="Layer_1-2" data-name="Layer 1">
    <g>
      <g>
        <path class="cls-1" d="M8,105.64C8,51.8,51.8,8,105.64,8s97.64,43.8,97.64,97.64c0,6.57-.66,12.99-1.9,19.2,2.47,1.42,4.87,2.93,7.21,4.53,1.76-7.63,2.69-15.57,2.69-23.73C211.28,47.39,163.89,0,105.64,0S0,47.39,0,105.64c0,33.65,15.81,63.67,40.39,83.03.83-2.73,1.75-5.41,2.78-8.04-21.48-17.92-35.18-44.88-35.18-74.98Z"/>
        <path class="cls-1" d="M105.64,13.21C54.67,13.21,13.21,54.67,13.21,105.64c0,27.92,12.44,52.99,32.08,69.95,1.13-2.53,2.36-5.01,3.67-7.43-17.03-15.46-27.75-37.76-27.75-62.52,0-46.55,37.88-84.43,84.43-84.43s84.43,37.88,84.43,84.43c0,4.46-.35,8.83-1.02,13.1,2.56,1.07,5.07,2.24,7.53,3.49.98-5.39,1.49-10.93,1.49-16.59,0-50.97-41.46-92.43-92.43-92.43Z"/>
        <path class="cls-1" d="M105.64,25.94c-43.94,0-79.7,35.75-79.7,79.7,0,23,9.8,43.74,25.43,58.3,1.4-2.33,2.88-4.6,4.44-6.81-13.47-13.04-21.87-31.3-21.87-51.48,0-39.53,32.16-71.7,71.7-71.7s71.7,32.16,71.7,71.7c0,2.98-.2,5.91-.56,8.79,2.62.75,5.2,1.59,7.74,2.53.53-3.7.82-7.48.82-11.32,0-43.94-35.75-79.7-79.7-79.7Z"/>
        <path class="cls-1" d="M105.64,38.76c-36.88,0-66.88,30-66.88,66.88,0,18.6,7.64,35.45,19.94,47.59,1.64-2.12,3.35-4.18,5.13-6.17-10.55-10.65-17.08-25.28-17.08-41.42,0-32.47,26.42-58.88,58.88-58.88s58.88,26.42,58.88,58.88c0,2.02-.1,4.02-.3,5.99,2.65.43,5.28.96,7.86,1.58.28-2.49.44-5.01.44-7.57,0-36.88-30-66.88-66.88-66.88Z"/>
        <path class="cls-1" d="M105.64,51.62c-29.79,0-54.02,24.23-54.02,54.02,0,14.74,5.94,28.11,15.54,37.86,1.86-1.91,3.79-3.74,5.79-5.51-8.23-8.32-13.33-19.75-13.33-32.35,0-25.38,20.64-46.02,46.02-46.02s46.02,20.64,46.02,46.02c0,1.57-.08,3.13-.24,4.66,2.68.12,5.34.34,7.97.65.17-1.75.26-3.52.26-5.31,0-29.79-24.23-54.02-54.02-54.02Z"/>
      </g>
      <g>
        <path class="cls-1" d="M146.3,326.48c-58.25,0-105.64-47.39-105.64-105.64s47.39-105.64,105.64-105.64,105.64,47.39,105.64,105.64-47.39,105.64-105.64,105.64ZM146.3,123.2c-53.84,0-97.64,43.8-97.64,97.64s43.8,97.64,97.64,97.64,97.64-43.8,97.64-97.64-43.8-97.64-97.64-97.64Z"/>
        <path class="cls-1" d="M146.3,313.27c-50.97,0-92.43-41.46-92.43-92.43s41.46-92.43,92.43-92.43,92.43,41.46,92.43,92.43-41.46,92.43-92.43,92.43ZM146.3,136.41c-46.55,0-84.43,37.88-84.43,84.43s37.88,84.43,84.43,84.43,84.43-37.88,84.43-84.43-37.88-84.43-84.43-84.43Z"/>
        <path class="cls-1" d="M146.3,300.54c-43.94,0-79.7-35.75-79.7-79.7s35.75-79.7,79.7-79.7,79.7,35.75,79.7,79.7-35.75,79.7-79.7,79.7ZM146.3,149.14c-39.53,0-71.7,32.16-71.7,71.7s32.16,71.7,71.7,71.7,71.7-32.16,71.7-71.7-32.16-71.7-71.7-71.7Z"/>
        <path class="cls-1" d="M146.3,287.72c-36.88,0-66.88-30-66.88-66.88s30-66.88,66.88-66.88,66.88,30,66.88,66.88-30,66.88-66.88,66.88ZM146.3,161.96c-32.47,0-58.88,26.42-58.88,58.88s26.42,58.88,58.88,58.88,58.88-26.42,58.88-58.88-26.42-58.88-58.88-58.88Z"/>
        <path class="cls-1" d="M146.3,274.86c-29.79,0-54.02-24.23-54.02-54.02s24.23-54.02,54.02-54.02,54.02,24.23,54.02,54.02-24.23,54.02-54.02,54.02ZM146.3,174.82c-25.38,0-46.02,20.64-46.02,46.02s20.64,46.02,46.02,46.02,46.02-20.64,46.02-46.02-20.64-46.02-46.02-46.02Z"/>
      </g>
    </g>
  </g>
</svg>