<?xml version="1.0" encoding="UTF-8"?>
<svg id="Layer_2" data-name="Layer 2" xmlns="http://www.w3.org/2000/svg" viewBox="0 0 220.3 303.85">
  <defs>
    <style>
      .cls-1 {
        fill: #74c9b5;
      }
    </style>
  </defs>
  <g id="Layer_1-2" data-name="Layer 1">
    <g>
      <g>
        <path class="cls-1" d="M114.66,0C56.41,0,9.03,47.39,9.03,105.64c0,10.79,1.63,21.2,4.65,31.01,1.89-2.83,3.9-5.55,6.05-8.18-1.77-7.33-2.7-14.97-2.7-22.83C17.03,51.8,60.83,8,114.66,8s97.64,43.8,97.64,97.64c0,14.51-3.18,28.3-8.89,40.69,1.59,2.98,3.04,6.04,4.35,9.18,8-14.86,12.54-31.84,12.54-49.87C220.3,47.39,172.91,0,114.66,0Z"/>
        <path class="cls-1" d="M114.66,13.21c-50.96,0-92.42,41.46-92.42,92.43,0,6.12.6,12.1,1.74,17.89,2.22-2.43,4.55-4.75,6.97-6.97-.47-3.58-.71-7.22-.71-10.92,0-46.56,37.87-84.43,84.42-84.43s84.43,37.87,84.43,84.43c0,9.39-1.54,18.43-4.39,26.88,1.95,2.63,3.78,5.35,5.48,8.16,4.46-10.81,6.91-22.64,6.91-35.04,0-50.97-41.46-92.43-92.43-92.43Z"/>
        <path class="cls-1" d="M114.66,25.94c-43.94,0-79.69,35.75-79.69,79.7,0,2.41.11,4.79.32,7.15,2.47-2.05,5.04-3.98,7.69-5.8-.01-.45-.01-.9-.01-1.35,0-39.54,32.16-71.7,71.69-71.7s71.7,32.16,71.7,71.7c0,5.21-.56,10.29-1.62,15.18,2.25,2.29,4.39,4.69,6.42,7.17,2.09-7.09,3.2-14.59,3.2-22.35,0-43.95-35.75-79.7-79.7-79.7Z"/>
        <path class="cls-1" d="M114.66,38.75c-36.27,0-65.91,29.05-66.86,65.11,2.7-1.67,5.48-3.22,8.33-4.64,3.21-29.46,28.24-52.47,58.53-52.47,32.47,0,58.89,26.42,58.89,58.89,0,1.7-.07,3.37-.21,5.03,2.51,1.94,4.94,3.99,7.27,6.15.62-3.63.94-7.37.94-11.18,0-36.88-30-66.89-66.89-66.89Z"/>
        <path class="cls-1" d="M114.66,51.62c-26.76,0-49.04,19.56-53.29,45.14,2.92-1.28,5.9-2.43,8.95-3.46,5.41-19.41,23.24-33.68,44.34-33.68,24.2,0,44.09,18.76,45.9,42.5,2.78,1.59,5.48,3.3,8.1,5.12.02-.53.03-1.06.03-1.6,0-29.79-24.24-54.02-54.03-54.02Z"/>
      </g>
      <g>
        <path class="cls-1" d="M105.64,303.85C47.39,303.85,0,256.46,0,198.21s47.39-105.64,105.64-105.64,105.64,47.39,105.64,105.64-47.39,105.64-105.64,105.64ZM105.64,100.57c-53.84,0-97.64,43.8-97.64,97.64s43.8,97.64,97.64,97.64,97.64-43.8,97.64-97.64-43.8-97.64-97.64-97.64Z"/>
        <path class="cls-1" d="M105.64,290.64c-50.97,0-92.43-41.46-92.43-92.43s41.46-92.43,92.43-92.43,92.43,41.46,92.43,92.43-41.46,92.43-92.43,92.43ZM105.64,113.78c-46.55,0-84.43,37.88-84.43,84.43s37.88,84.43,84.43,84.43,84.43-37.88,84.43-84.43-37.87-84.43-84.43-84.43Z"/>
        <path class="cls-1" d="M105.64,277.91c-43.94,0-79.7-35.75-79.7-79.7s35.75-79.7,79.7-79.7,79.7,35.75,79.7,79.7-35.75,79.7-79.7,79.7ZM105.64,126.51c-39.53,0-71.7,32.16-71.7,71.7s32.16,71.7,71.7,71.7,71.7-32.16,71.7-71.7-32.16-71.7-71.7-71.7Z"/>
        <path class="cls-1" d="M105.64,265.09c-36.88,0-66.88-30-66.88-66.88s30-66.88,66.88-66.88,66.88,30,66.88,66.88-30,66.88-66.88,66.88ZM105.64,139.33c-32.47,0-58.88,26.42-58.88,58.88s26.42,58.88,58.88,58.88,58.88-26.42,58.88-58.88-26.42-58.88-58.88-58.88Z"/>
        <path class="cls-1" d="M105.64,252.23c-29.79,0-54.02-24.23-54.02-54.02s24.23-54.02,54.02-54.02,54.02,24.23,54.02,54.02-24.23,54.02-54.02,54.02ZM105.64,152.19c-25.38,0-46.02,20.64-46.02,46.02s20.64,46.02,46.02,46.02,46.02-20.64,46.02-46.02-20.64-46.02-46.02-46.02Z"/>
      </g>
    </g>
  </g>
</svg>