<?xml version="1.0" encoding="UTF-8"?>
<svg id="Layer_2" data-name="Layer 2" xmlns="http://www.w3.org/2000/svg" xmlns:xlink="http://www.w3.org/1999/xlink" viewBox="0 0 159.89 154.24">
  <defs>
    <style>
      .cls-1 {
        fill: url(#linear-gradient-3);
      }

      .cls-2 {
        fill: url(#linear-gradient-2);
      }

      .cls-3 {
        fill: url(#linear-gradient);
      }

      .cls-4 {
        fill: none;
        stroke: #1ea493;
        stroke-linecap: round;
        stroke-miterlimit: 10;
        stroke-width: 5.5px;
      }

      .cls-5 {
        fill: #74c9b5;
      }
    </style>
    <linearGradient id="linear-gradient" x1="40.71" y1="99.86" x2="40.71" y2="22.11" gradientUnits="userSpaceOnUse">
      <stop offset="0" stop-color="#136e8d"/>
      <stop offset="1" stop-color="#74c9b5"/>
    </linearGradient>
    <linearGradient id="linear-gradient-2" x1="119.14" x2="119.14" xlink:href="#linear-gradient"/>
    <linearGradient id="linear-gradient-3" x1="79.93" y1="49.52" x2="79.93" y2="0" gradientUnits="userSpaceOnUse">
      <stop offset="0" stop-color="#53a4a6"/>
      <stop offset="1" stop-color="#74c9b5"/>
    </linearGradient>
  </defs>
  <g id="Layer_2-2" data-name="Layer 2">
    <g>
      <g>
        <path class="cls-3" d="M77.46,88.55c-.01-1.12-.02-2.51-.03-4.05-.03-5.51-.06-13.05-.39-16.76-.4-4.58-1.1-9.87-3.46-17.57-2.85-9.28-8-17.53-8.22-17.88-.31-.49-.96-.64-1.45-.33-.49.31-.64.96-.33,1.45.05.08,5.23,8.36,7.99,17.37,2.18,7.09,2.92,11.98,3.37,17.14.1,1.18.18,2.77.23,4.57-21.5-2.05-39.43-18.04-43.82-39.27-.12-.57-.67-.93-1.24-.82-.57.12-.93.67-.82,1.24,4.59,22.21,23.4,38.92,45.93,40.96.03,1.42.05,2.91.06,4.39-28.34-2.33-50.82-26.14-51.41-54.7-.01-.58-.47-1.03-1.07-1.03-.58.01-1.04.49-1.03,1.07.3,14.65,6.06,28.54,16.22,39.11,9.91,10.3,23.12,16.54,37.3,17.66,0,1.18.01,2.33.02,3.4,0,.31,0,.61,0,.91-32.52-2.36-57.86-29.49-57.87-62.25,0-.58-.47-1.05-1.05-1.05h0c-.58,0-1.05.47-1.05,1.05.02,33.93,26.29,62,59.98,64.36,0,.37,0,.72,0,1.05.01,1.29,0,2.4-.05,3.35-16.82-1.11-32.58-8.31-44.47-20.37-12.14-12.31-19.18-28.6-19.81-45.86-.02-.58-.5-1.03-1.09-1.01-.58.02-1.03.51-1.01,1.09.65,17.78,7.9,34.57,20.41,47.26,12.23,12.4,28.44,19.82,45.75,20.99-.34,1.86-1.04,2.82-2.41,3.3-2.66.93-5.87.22-8.44-.36-.37-.08-.73-.16-1.08-.23-.01,0-.02-.01-.03-.01-28.71-6.53-51.12-29.38-57.09-58.21-.12-.57-.67-.93-1.24-.82-.57.12-.93.67-.82,1.24,6.13,29.63,29.16,53.1,58.66,59.82.01,0,.03.01.04.02.35.07.71.15,1.1.24,1.71.38,3.82.85,5.97.85,1.22,0,2.45-.15,3.62-.56,2.71-.95,3.66-3.07,3.96-6.17,0,0,0-.01,0-.02,0,0,0-.01,0-.02.13-1.34.14-2.85.12-4.54Z"/>
        <path class="cls-2" d="M155.06,37.69c-.57-.11-1.12.25-1.24.82-6.04,29.19-28.77,52.1-57.91,58.39,0,0,0,0,0,0-.1.02-.19.04-.29.06-2.58.57-5.78,1.29-8.44.36-1.38-.48-2.08-1.44-2.41-3.3,17.31-1.16,33.52-8.58,45.76-20.98,12.51-12.69,19.76-29.47,20.42-47.26.02-.58-.43-1.07-1.01-1.09-.55-.04-1.07.43-1.09,1.01-.63,17.26-7.67,33.55-19.81,45.86-11.89,12.06-27.65,19.26-44.48,20.37-.05-.96-.06-2.06-.05-3.35,0-.33,0-.68,0-1.05,33.71-2.36,59.98-30.43,60-64.36,0-.58-.47-1.05-1.05-1.05s-1.05.47-1.05,1.05c-.02,32.78-25.35,59.9-57.89,62.26,0-.3,0-.6,0-.91,0-1.07.01-2.22.02-3.4,14.18-1.11,27.4-7.35,37.31-17.65,10.16-10.57,15.93-24.46,16.22-39.12.01-.58-.45-1.06-1.03-1.07h-.02c-.57,0-1.04.46-1.05,1.03-.58,28.57-23.08,52.38-51.42,54.7.01-1.48.03-2.97.06-4.39,22.53-2.03,41.35-18.74,45.94-40.96.12-.57-.25-1.12-.82-1.24-.58-.12-1.12.25-1.24.82-4.39,21.24-22.32,37.23-43.83,39.27.05-1.8.13-3.39.23-4.57.45-5.16,1.2-10.04,3.37-17.14,2.76-9.01,7.94-17.29,7.99-17.37.31-.49.16-1.14-.33-1.45s-1.14-.16-1.45.33c-.22.35-5.38,8.59-8.22,17.88-2.36,7.7-3.06,12.99-3.46,17.57-.32,3.71-.36,11.25-.39,16.76,0,1.54-.01,2.93-.03,4.05-.02,1.69,0,3.2.12,4.54,0,0,0,.01,0,.02,0,0,0,.02,0,.02.3,3.1,1.25,5.22,3.96,6.17,1.17.41,2.4.56,3.62.56,2.14,0,4.26-.47,5.97-.85.38-.08.75-.17,1.1-.24.03,0,.05-.03.08-.04,29.51-6.73,52.48-30.1,58.62-59.8.12-.57-.25-1.12-.82-1.24Z"/>
      </g>
      <path class="cls-1" d="M79.93,49.52c-.32,0-.64-.12-.88-.36l-.15-.18-1.83-2.91c-8.12-12.93-8.13-29.63-.02-42.57l1.99-3.13c.48-.48,1.27-.48,1.75,0l.15.18,1.84,2.93c8.12,12.93,8.12,29.64,0,42.57l-1.99,3.11c-.24.24-.56.36-.88.36ZM79.93,2.87l-1.09,1.74c-7.68,12.25-7.68,28.09.02,40.34l1.08,1.71,1.08-1.73c7.69-12.25,7.69-28.08,0-40.34l-1.08-1.73Z"/>
      <g>
        <circle class="cls-5" cx="130.19" cy="27.61" r="1.16"/>
        <circle class="cls-5" cx="136.95" cy="18.37" r="1.16"/>
        <circle class="cls-5" cx="143.33" cy="15.22" r="1.16"/>
        <circle class="cls-5" cx="149.9" cy="19.89" r="1.16"/>
        <circle class="cls-5" cx="155.5" cy="32.84" r="1.16"/>
        <circle class="cls-5" cx="98.5" cy="28.31" r="1.16"/>
      </g>
      <g>
        <circle class="cls-5" cx="29.66" cy="27.61" r="1.16"/>
        <circle class="cls-5" cx="22.9" cy="18.37" r="1.16"/>
        <circle class="cls-5" cx="16.52" cy="15.22" r="1.16"/>
        <circle class="cls-5" cx="9.95" cy="19.89" r="1.16"/>
        <circle class="cls-5" cx="4.35" cy="32.84" r="1.16"/>
        <circle class="cls-5" cx="61.35" cy="28.31" r="1.16"/>
      </g>
      <g>
        <line class="cls-4" x1="2.75" y1="112.34" x2="2.75" y2="151.14"/>
        <path class="cls-4" d="M49.56,151.14l-15.97-37.87c-.24-.56-.79-.93-1.4-.93h0c-.61,0-1.16.37-1.4.93l-15.97,37.87"/>
        <path class="cls-4" d="M75.82,112.34s-.18,16.12-.18,27.1c0,4.14-.64,8.28-4.25,10.37-6.3,3.64-12.56-.37-12.56-.37"/>
        <line class="cls-4" x1="91.39" y1="112.33" x2="91.39" y2="151.14"/>
        <line class="cls-4" x1="91.39" y1="112.33" x2="116.19" y2="112.33"/>
        <line class="cls-4" x1="91.39" y1="151.14" x2="116.19" y2="151.14"/>
        <line class="cls-4" x1="91.86" y1="131.74" x2="113.95" y2="131.73"/>
        <path class="cls-4" d="M130.17,148.48s21.7,8.94,26.37-3.99c3.66-10.13-10.69-11.91-13.27-12.66-2.11-.61-12.53-2.45-12.47-9.43.13-15.81,24.47-8.28,24.47-8.28"/>
      </g>
    </g>
  </g>
</svg>